<?xml version="1.0" encoding="utf-8"?>
<svg width="167.0869141pt" height="242.6669922pt" viewBox="0 0 167.0869141 242.6669922" id="svg2" version="1.1" xmlns="http://www.w3.org/2000/svg">
  <g id="Layer_x0020_1" style="fill-rule:nonzero;clip-rule:nonzero;stroke:#000000;stroke-miterlimit:4;">
    <path style="fill:#FFFFFF;stroke-width:0.5;" d="M166.8369141,235.5478516c0,3.7773438-3.0869141,6.8691406-6.8710938,6.8691406H7.1108398c-3.7749023,0-6.8608398-3.0917969-6.8608398-6.8691406V7.1201172C0.25,3.3427734,3.3359375,0.25,7.1108398,0.25h152.8549805    c3.7841797,0,6.8710938,3.0927734,6.8710938,6.8701172v228.4277344z" id="path5"/>
    <g style="stroke:none;" id="g7">
      <g id="g9"/>
    </g>
    <g id="g15"/>
    <g id="g19"/>
    <g style="stroke:none;" id="g23">
      <g id="g25"/>
    </g>
    <g style="stroke:none;" id="g31">
      <g id="g33"/>
    </g>
  </g>
  <text style="font-size: 32px; font-style: normal; font-weight: normal; line-height: 125%; letter-spacing: 0px; word-spacing: 0px; fill: rgb(0, 0, 0); fill-opacity: 1; stroke: none; font-family: &quot;Bitstream Vera Sans&quot;; white-space: pre;" x="60.336" y="86.285" id="text3788"><tspan id="tspan3790" x="60.336" y="86.285" style="font-style: normal; font-variant: normal; font-weight: normal; font-stretch: normal; font-family: Arial; font-size: 81px; word-spacing: 0px;">6</tspan></text>
  <g transform="matrix(-4.72218, 0, 0, 4.72218, 307.665955, 51.657494)" id="layer1-1-4-8-0" style="">
    <path id="cl-9-8-6" d="m 50.291466,22.698228 c 0,0 2.375,-1.9 2.375,-4.534 0,-1.542 -1.369,-4.102 -4.534,-4.102 -3.165,0 -4.534,2.561 -4.534,4.102 0,2.634 2.375,4.534 2.375,4.534 -2.638,-2.055 -7.341,-0.652 -7.341,3.455 0,2.056 1.68,4.318 4.318,4.318 3.165,0 4.534,-3.455 4.534,-3.455 0,0 0.402,3.938 -1.943,6.046 h 5.182 c -2.345,-2.107 -1.943,-6.046 -1.943,-6.046 0,0 1.369,3.455 4.534,3.455 2.639,0 4.318,-2.263 4.318,-4.318 0,-4.107 -4.703,-5.51 -7.341,-3.455 z" style="fill:#000000"/>
  </g>
</svg>
