<?xml version="1.0" encoding="utf-8"?>
<svg width="167.0869141pt" height="242.6669922pt" viewBox="0 0 167.0869141 242.6669922" id="svg2" version="1.1" xmlns="http://www.w3.org/2000/svg">
  <g id="Layer_x0020_1" style="fill-rule:nonzero;clip-rule:nonzero;stroke:#000000;stroke-miterlimit:4;">
    <path style="fill:#FFFFFF;stroke-width:0.5;" d="M166.8369141,235.5478516c0,3.7773438-3.0869141,6.8691406-6.8710938,6.8691406H7.1108398c-3.7749023,0-6.8608398-3.0917969-6.8608398-6.8691406V7.1201172C0.25,3.3427734,3.3359375,0.25,7.1108398,0.25h152.8549805    c3.7841797,0,6.8710938,3.0927734,6.8710938,6.8701172v228.4277344z" id="path5"/>
    <g style="stroke:none;" id="g7">
      <g id="g9"/>
    </g>
    <g id="g15"/>
    <g id="g19"/>
    <g style="stroke:none;" id="g23">
      <g id="g25"/>
    </g>
    <g style="stroke:none;" id="g31">
      <g id="g33"/>
    </g>
  </g>
  <text style="font-size: 32px; font-style: normal; font-weight: normal; line-height: 125%; letter-spacing: 0px; word-spacing: 0px; fill: rgb(0, 0, 0); fill-opacity: 1; stroke: none; font-family: &quot;Bitstream Vera Sans&quot;; white-space: pre;" x="58.882" y="86.759" id="text3788"><tspan id="tspan3790" x="58.882" y="86.759" style="font-style: normal; font-variant: normal; font-weight: normal; font-stretch: normal; font-family: Arial; font-size: 74.7px; word-spacing: 0px;">J</tspan></text>
  <g transform="matrix(-4.803109, 0, 0, 4.391538, 80.227768, 159.918976)" id="layer1-7-88-7" style="">
    <path id="sl-4-5" d="M 7.989,3.103 C 7.747,-0.954 0.242,-8.59 0,-10.5 c -0.242,1.909 -7.747,9.545 -7.989,13.603 -0.169,2.868 1.695,4.057 3.39,4.057 1.8351685,-0.021581 3.3508701,-2.8006944 3.873,-3.341 0.242,0.716 -1.603,6.682 -2.179,6.682 l 5.811,0 C 2.33,10.501 0.485,4.535 0.727,3.819 1.1841472,4.3152961 2.5241276,7.0768295 4.601,7.16 6.295,7.159 8.158,5.971 7.989,3.103 z" style="fill:#000000"/>
  </g>
</svg>
