<?xml version="1.0" encoding="utf-8"?>
<svg width="167.0869141pt" height="242.6669922pt" viewBox="0 0 167.0869141 242.6669922" id="svg2" version="1.1" xmlns="http://www.w3.org/2000/svg">
  <g id="Layer_x0020_1" style="fill-rule:nonzero;clip-rule:nonzero;stroke:#000000;stroke-miterlimit:4;">
    <path style="fill:#FFFFFF;stroke-width:0.5;" d="M166.8369141,235.5478516c0,3.7773438-3.0869141,6.8691406-6.8710938,6.8691406H7.1108398c-3.7749023,0-6.8608398-3.0917969-6.8608398-6.8691406V7.1201172C0.25,3.3427734,3.3359375,0.25,7.1108398,0.25h152.8549805    c3.7841797,0,6.8710938,3.0927734,6.8710938,6.8701172v228.4277344z" id="path5"/>
    <g style="stroke:none;" id="g7">
      <g id="g9"/>
    </g>
    <g id="g15"/>
    <g id="g19"/>
    <g style="stroke:none;" id="g23">
      <g id="g25"/>
    </g>
    <g style="stroke:none;" id="g31">
      <g id="g33"/>
    </g>
  </g>
  <text style="font-size: 32px; font-style: normal; font-weight: normal; line-height: 125%; letter-spacing: 0px; word-spacing: 0px; fill: rgb(223, 0, 0); fill-opacity: 1; stroke: none; font-family: &quot;Bitstream Vera Sans&quot;; white-space: pre;" x="58.489" y="87.546" id="text3788"><tspan id="tspan3790" x="58.489" y="87.546" style="font-style: normal; font-variant: normal; font-weight: normal; font-stretch: normal; fill: rgb(223, 0, 0); fill-opacity: 1; font-family: Arial; font-size: 73.3px; word-spacing: 0px;">J</tspan></text>
  <g transform="matrix(4.36268, 0, 0, 4.36268, 78.824455, 162.100464)" id="layer1-2-6-8" style="">
    <path style="fill:#df0000" id="dl-6-8" d="M 3.2433274,-4.7253274 C 1.1263274,-7.5893274 0,-10.5 0,-10.5 c 0,0 -1.1263274,2.9106726 -3.2433274,5.7746726 C -5.3613274,-1.8623274 -8,0 -8,0 -8,0 -5.3613274,1.8613274 -3.2433274,4.7263274 -1.1263274,7.5893274 0,10.5 0,10.5 0,10.5 1.1263274,7.5893274 3.2433274,4.7263274 5.3613274,1.8613274 8,0 8,0 8,0 5.3613274,-1.8623274 3.2433274,-4.7253274 z"/>
  </g>
</svg>
